GIL01_xslow2_RRA_states
nRows=8
nColumns=47

# SIMM Motion File Header:
name GIL01_xslow2_RRA_states
datacolumns 47
datarows 8
otherdata 1
range 0.31833000000000000000 0.31833127000000000000
endheader
time	pelvis_tx	pelvis_ty	pelvis_tz	pelvis_tilt	pelvis_list	pelvis_rotation	hip_flexion_r	hip_adduction_r	hip_rotation_r	knee_angle_r	ankle_angle_r	subtalar_angle_r	mtp_angle_r	hip_flexion_l	hip_adduction_l	hip_rotation_l	knee_angle_l	ankle_angle_l	subtalar_angle_l	mtp_angle_l	lumbar_extension	lumbar_bending	lumbar_rotation	pelvis_tx_u	pelvis_ty_u	pelvis_tz_u	pelvis_tilt_u	pelvis_list_u	pelvis_rotation_u	hip_flexion_r_u	hip_adduction_r_u	hip_rotation_r_u	knee_angle_r_u	ankle_angle_r_u	subtalar_angle_r_u	mtp_angle_r_u	hip_flexion_l_u	hip_adduction_l_u	hip_rotation_l_u	knee_angle_l_u	ankle_angle_l_u	subtalar_angle_l_u	mtp_angle_l_u	lumbar_extension_u	lumbar_bending_u	lumbar_rotation_u
      0.31833000000000000000	      0.78862398854863691000	      0.79924819182050300000	     -0.25667226363219675000	     -2.04278640983783430000	      6.20181213919632770000	     -3.73149821144144100000	     -2.71007862753479060000	    -14.01547800124623300000	    -10.76288758552282100000	    -38.96406718292433200000	    -32.46390546635994000000	      0.00000000000000000000	      0.00000000000000000000	      2.02043765450260570000	      7.86779765726630130000	     -1.53555247745492810000	      8.77828921684438690000	     -7.55906858756675690000	      0.00000000000000000000	      0.00000000000000000000	      2.97765840750452830000	     -7.90176829046119520000	      1.54229453430189770000	      0.49273794933829801000	      0.00543086492536645590	     -0.10596916108423662000	     -0.84395943675397989000	     11.27951131550865500000	     -9.96187305905204030000	    149.22790927438663000000	    -27.00851486544244700000	    133.98804506052247000000	   -231.43079398330661000000	   -143.60627527719319000000	      0.00000000000000000000	      0.00000000000000000000	    -59.59573685389615600000	     20.55738175350222400000	      3.04577982926159500000	     37.00838897110851600000	     23.46639153511556600000	      0.00000000000000000000	      0.00000000000000000000	    -11.43765597437094100000	    -16.59347404244466900000	      5.45592544689495450000
      0.31833001000000000000	      0.78862399347601631000	      0.79924819187481166000	     -0.25667226469188836000	     -2.04278641827743580000	      6.20181225199144310000	     -3.73149831106017290000	     -2.71007713525567920000	    -14.01547827133136600000	    -10.76288624564236200000	    -38.96406949723226600000	    -32.46390690242256500000	     -0.00000000000000000000	      0.00000000000000000000	      2.02043705854525600000	      7.86779786284012060000	     -1.53555244699713290000	      8.77828958692825800000	     -7.55906835290281980000	      0.00000000000000000000	     -0.00000000000000000000	      2.97765829312797690000	     -7.90176845639593320000	      1.54229458886114680000	      0.49273793970766810000	      0.00543085838168456700	     -0.10596915843668799000	     -0.84396088197057695000	     11.27951173064406000000	     -9.96187335100415790000	    149.22791298848094000000	    -27.00851198572906500000	    133.98804685243422000000	   -231.43079305552817000000	   -143.60625163198969000000	      0.00000000000000000000	      0.00000000000000000001	    -59.59573301015282000000	     20.55738193418971300000	      3.04577917788960260000	     37.00838529100509100000	     23.46639604111046400000	      0.00000000000000000004	     -0.00000000000000000018	    -11.43765434956217100000	    -16.59347360070350100000	      5.45592436895129840000
      0.31833002999999999000	      0.78862400333077487000	      0.79924819198342867000	     -0.25667226681127148000	     -2.04278643515668220000	      6.20181247758168650000	     -3.73149851029764610000	     -2.71007415069734490000	    -14.01547881150154900000	    -10.76288356588138700000	    -38.96407412584810700000	    -32.46390977454712600000	      0.00000000000000000000	     -0.00000000000000000000	      2.02043586663067300000	      7.86779827398776190000	     -1.53555238608156230000	      8.77829032709589010000	     -7.55906788357480860000	      0.00000000000000000000	     -0.00000000000000000000	      2.97765806437492220000	     -7.90176878826539570000	      1.54229469797961260000	      0.49273792044642489000	      0.00543084529434266060	     -0.10596915314159545000	     -0.84396377238862086000	     11.27951256091880700000	     -9.96187393490517080000	    149.22792041664235000000	    -27.00850622630808900000	    133.98805043624336000000	   -231.43079119995576000000	   -143.60620434158056000000	      0.00000000000000000001	     -0.00000000000000000006	    -59.59572532269543600000	     20.55738229557144000000	      3.04577787514934430000	     37.00837793083280000000	     23.46640505297641600000	     -0.00000000000000000017	     -0.00000000000000000029	    -11.43765109996044100000	    -16.59347271722705100000	      5.45592221305918020000
      0.31833006999999997000	      0.78862402304029089000	      0.79924819220066201000	     -0.25667227105003737000	     -2.04278646891534880000	      6.20181292876222210000	     -3.73149890877262670000	     -2.71006818158023140000	    -14.01547989184156700000	    -10.76287820635922700000	    -38.96408338307968200000	    -32.46391551879341400000	      0.00000000000000000000	     -0.00000000000000000000	      2.02043348280196740000	      7.86779909628306930000	     -1.53555226425049930000	      8.77829180743071190000	     -7.55906694491824550000	     -0.00000000000000000000	      0.00000000000000000000	      2.97765760686900820000	     -7.90176945200427030000	      1.54229491621641500000	      0.49273788192400481000	      0.00543081911974633600	     -0.10596914255142938000	     -0.84396955316410771000	     11.27951422148405100000	     -9.96187510269431800000	    149.22793527285631000000	    -27.00849470748930900000	    133.98805760380404000000	   -231.43078748874879000000	   -143.60610976075387000000	      0.00000000000000000013	     -0.00000000000000000004	    -59.59570994789782400000	     20.55738301836190000000	      3.04577526968373390000	     37.00836321062643500000	     23.46642307621293700000	     -0.00000000000000000132	      0.00000000000000000128	    -11.43764460082020000000	    -16.59347095029771400000	      5.45591790125572640000
      0.31833014999999998000	      0.78862406245931838000	      0.79924819263512548000	     -0.25667227952756794000	     -2.04278653643337550000	      6.20181383112349230000	     -3.73149970572272860000	     -2.71005624334422060000	    -14.01548205252022200000	    -10.76286748731404500000	    -38.96410189754238500000	    -32.46392700727462700000	      0.00000000000000000000	     -0.00000000000000000000	      2.02042871514640110000	      7.86780074087376930000	     -1.53555202058868630000	      8.77829476809859170000	     -7.55906506760295740000	     -0.00000000000000000000	      0.00000000000000000000	      2.97765669185795990000	     -7.90177077948180440000	      1.54229535268950200000	      0.49273780487942981000	      0.00543076677090363790	     -0.10596912137117320000	     -0.84398111447267798000	     11.27951754267753700000	     -9.96187743822109440000	    149.22796498484880000000	    -27.00847166994440900000	    133.98807193869496000000	   -231.43078006608641000000	   -143.60592059906659000000	      0.00000000000000000026	     -0.00000000000000000008	    -59.59567919877121500000	     20.55738446405083800000	      3.04577005881213610000	     37.00833377076656900000	     23.46645912070447400000	     -0.00000000000000000214	      0.00000000000000000208	    -11.43763160279260800000	    -16.59346741653328300000	      5.45590927757194950000
      0.31833031000000001000	      0.78862414129735481000	      0.79924819350403975000	     -0.25667229648262396000	     -2.04278667147220360000	      6.20181563584683020000	     -3.73150129962349240000	     -2.71003236686506940000	    -14.01548637387200300000	    -10.76284604922024200000	    -38.96413892646600600000	    -32.46394998419165700000	      0.00000000000000000000	      0.00000000000000000000	      2.02041917984264920000	      7.86780403005551500000	     -1.53555153326631080000	      8.77830068942728480000	     -7.55906131296373210000	     -0.00000000000000000000	      0.00000000000000000000	      2.97765486183898350000	     -7.90177343443602620000	      1.54229622563360680000	      0.49273765079134058000	      0.00543066207461804370	     -0.10596907901096472000	     -0.84400423612020414000	     11.27952418531649300000	     -9.96188210906857560000	    149.22802440709208000000	    -27.00842559522528000000	    133.98810060755500000000	   -231.43076521976784000000	   -143.60554227555679000000	     -0.00000000000000000022	      0.00000000000000000075	    -59.59561770239246700000	     20.55738735586077600000	      3.04575963730743380000	     37.00827489325831000000	     23.46653120176150500000	     -0.00000000000000000147	      0.00000000000000000863	    -11.43760560774898700000	    -16.59346034938136300000	      5.45589202989691290000
      0.31833063000000000000	      0.78862429897335373000	      0.79924819524181812000	     -0.25667233039271570000	     -2.04278694156095760000	      6.20181924529669540000	     -3.73150448742726140000	     -2.70998461387824460000	    -14.01549501655345000000	    -10.76280317301887400000	    -38.96421298430612300000	    -32.46399593784412500000	     -0.00000000000000000000	      0.00000000000000000000	      2.02040010926466220000	      7.86781060842039450000	     -1.53555055862656140000	      8.77831253205641100000	     -7.55905380365068510000	     -0.00000000000000000000	      0.00000000000000000000	      2.97765120181350710000	     -7.90177874434107700000	      1.54229797151353680000	      0.49273734261940527000	      0.00543045268764606040	     -0.10596899429176326000	     -0.84405047553680301000	     11.27953747160234100000	     -9.96189144993925880000	    149.22814324461180000000	    -27.00833344726966300000	    133.98815794158810000000	   -231.43073552315528000000	   -143.60478562799599000000	      0.00000000000000000015	      0.00000000000000000013	    -59.59549471713280900000	     20.55739314120890200000	      3.04573879525199940000	     37.00815714708768700000	     23.46667533217146200000	     -0.00000000000000000225	     -0.00000000000000000438	    -11.43755362170798400000	    -16.59344621658529900000	      5.45585753331691060000
      0.31833127000000000000	      0.78862461432505582000	      0.79924819871717379000	     -0.25667239821281784000	     -2.04278748178285150000	      6.20182646420918090000	     -3.73151086304376630000	     -2.70988910779051920000	    -14.01551230182788100000	    -10.76271742056110100000	    -38.96436109995784800000	    -32.46408784442267100000	      0.00000000000000000000	      0.00000000000000000000	      2.02036196822674660000	      7.86782376515570900000	     -1.53554860936707050000	      8.77833621720163570000	     -7.55903878488626100000	     -0.00000000000000000000	      0.00000000000000000000	      2.97764388181245640000	     -7.90178936413761250000	      1.54230146324027920000	      0.49273672629250720000	      0.00543003393609888230	     -0.10596882485822237000	     -0.84414293885621061000	     11.27956404820572800000	     -9.96191012838349010000	    149.22838089178401000000	    -27.00814915728899700000	    133.98827259490631000000	   -231.43067611402873000000	   -143.60327233070939000000	      0.00000000000000000039	      0.00000000000000000136	    -59.59524877660477000000	     20.55740471881805900000	      3.04569711495700530000	     37.00792169012994700000	     23.46696346617539300000	      0.00000000000000000452	     -0.00000000000000001248	    -11.43744966581092700000	    -16.59341795702421900000	      5.45578853523717380000
